<svg t="1696406290303" class="icon" viewBox="0 0 1024 1024" version="1.1" xmlns="http://www.w3.org/2000/svg" p-id="5062" width="128" height="128"><path d="M799.146667 928h-275.626667a52.821333 52.821333 0 0 1-44.373333-23.893333l-124.586667-186.88-96.426667 165.12a52.352 52.352 0 0 1-44.373333 26.453333h-4.010667a51.2 51.2 0 0 1-42.069333-24.064L23.893333 669.013333a53.290667 53.290667 0 0 1 0-59.306666l156.586667-234.666667a52.992 52.992 0 0 1 44.373333-23.893333h210.346667L332.8 175.36a52.821333 52.821333 0 0 1 0-53.333333 52.949333 52.949333 0 0 1 46.08-26.88h291.84a54.144 54.144 0 0 1 46.08 26.453333l285.866667 489.813333a52.992 52.992 0 0 1-1.706667 56.32l-157.013333 235.52a52.736 52.736 0 0 1-44.8 24.746667z m-398.037334-256l128 192h264.533334l150.186666-225.237333L664.32 160H397.226667l149.333333 256 102.4 175.744a53.546667 53.546667 0 0 1-46.08 80.213333H401.066667z m-170.282666-256L81.066667 640l130.56 195.413333 95.573333-163.413333 149.333333-256z m270.933333 49.92l-83.2 142.08h165.973333l-82.773333-142.08z" p-id="5063" fill="#2c2c2c"></path></svg>